<mxfile host="app.diagrams.net" agent="Mozilla/5.0 (Macintosh; Intel Mac OS X 10_15_7) AppleWebKit/537.36 (KHTML, like Gecko) Chrome/126.0.0.0 Safari/537.36" version="24.7.8">
  <diagram id="C5RBs43oDa-KdzZeNtuy" name="Page-1">
    <mxGraphModel dx="954" dy="496" grid="1" gridSize="10" guides="1" tooltips="1" connect="1" arrows="1" fold="1" page="1" pageScale="1" pageWidth="827" pageHeight="1169" math="0" shadow="0">
      <root>
        <mxCell id="WIyWlLk6GJQsqaUBKTNV-0" />
        <mxCell id="WIyWlLk6GJQsqaUBKTNV-1" parent="WIyWlLk6GJQsqaUBKTNV-0" />
        <mxCell id="c5KxyFGN9bZm3WGatxDX-1" value="" style="edgeStyle=orthogonalEdgeStyle;rounded=0;orthogonalLoop=1;jettySize=auto;html=1;strokeWidth=6;" edge="1" parent="WIyWlLk6GJQsqaUBKTNV-1" source="WIyWlLk6GJQsqaUBKTNV-3" target="c5KxyFGN9bZm3WGatxDX-0">
          <mxGeometry relative="1" as="geometry" />
        </mxCell>
        <mxCell id="WIyWlLk6GJQsqaUBKTNV-3" value="&lt;b&gt;&lt;font style=&quot;font-size: 18px;&quot;&gt;Data Acquisition:&lt;/font&gt;&lt;/b&gt;&lt;div&gt;Obtain RNA sequencing data in BAM format for 462 independent human samples from the GEUVADIS database using RNA sequencing technology.&lt;b&gt;&lt;font style=&quot;font-size: 18px;&quot;&gt;&lt;br&gt;&lt;/font&gt;&lt;/b&gt;&lt;/div&gt;" style="rounded=1;whiteSpace=wrap;html=1;fontSize=12;glass=0;strokeWidth=1;shadow=0;" parent="WIyWlLk6GJQsqaUBKTNV-1" vertex="1">
          <mxGeometry x="48" y="20" width="230" height="100" as="geometry" />
        </mxCell>
        <mxCell id="c5KxyFGN9bZm3WGatxDX-3" value="" style="edgeStyle=orthogonalEdgeStyle;rounded=0;orthogonalLoop=1;jettySize=auto;html=1;strokeWidth=6;" edge="1" parent="WIyWlLk6GJQsqaUBKTNV-1" source="c5KxyFGN9bZm3WGatxDX-0" target="c5KxyFGN9bZm3WGatxDX-2">
          <mxGeometry relative="1" as="geometry" />
        </mxCell>
        <mxCell id="c5KxyFGN9bZm3WGatxDX-0" value="&lt;p&gt;&lt;b&gt;&lt;font style=&quot;font-size: 18px;&quot;&gt;Sorting BAM Files:&lt;/font&gt;&lt;/b&gt;&lt;/p&gt;&lt;p&gt;&lt;span style=&quot;background-color: initial;&quot;&gt;Use &lt;/span&gt;&lt;strong style=&quot;background-color: initial;&quot;&gt;Samtools V 1.9&lt;/strong&gt;&lt;span style=&quot;background-color: initial;&quot;&gt; to sort the BAM files to organize the sequence alignments.&lt;/span&gt;&lt;/p&gt;" style="rounded=1;whiteSpace=wrap;html=1;glass=0;strokeWidth=1;shadow=0;" vertex="1" parent="WIyWlLk6GJQsqaUBKTNV-1">
          <mxGeometry x="43" y="200" width="240" height="80" as="geometry" />
        </mxCell>
        <mxCell id="c5KxyFGN9bZm3WGatxDX-5" value="" style="edgeStyle=orthogonalEdgeStyle;rounded=0;orthogonalLoop=1;jettySize=auto;html=1;strokeWidth=6;" edge="1" parent="WIyWlLk6GJQsqaUBKTNV-1" source="c5KxyFGN9bZm3WGatxDX-2" target="c5KxyFGN9bZm3WGatxDX-4">
          <mxGeometry relative="1" as="geometry" />
        </mxCell>
        <mxCell id="c5KxyFGN9bZm3WGatxDX-2" value="&lt;p&gt;&lt;font style=&quot;font-size: 18px;&quot;&gt;&lt;strong&gt;Gene Expression Quantification&lt;/strong&gt;:&lt;/font&gt;&lt;/p&gt;&lt;p&gt;&lt;span style=&quot;background-color: initial;&quot;&gt;Use &lt;/span&gt;&lt;strong style=&quot;background-color: initial;&quot;&gt;Cufflinks V 2.2.1&lt;/strong&gt;&lt;span style=&quot;background-color: initial;&quot;&gt; to quantify gene expression levels:&lt;/span&gt;&lt;/p&gt;&lt;p&gt;&lt;span style=&quot;background-color: initial;&quot;&gt;Utilize the Ensembl database with the GTF format file to obtain the starting points of transcripts from the hg19 genome reference.&lt;/span&gt;&lt;/p&gt;&lt;p&gt;&lt;span style=&quot;background-color: initial;&quot;&gt;Set the initial parameter to &lt;/span&gt;&lt;code style=&quot;background-color: initial;&quot;&gt;fr-firststrand&lt;/code&gt;&lt;span style=&quot;background-color: initial;&quot;&gt;.&lt;/span&gt;&lt;/p&gt;&lt;p&gt;&lt;span style=&quot;background-color: initial;&quot;&gt;Normalize based on FPKM (Fragments Per Kilobase of transcript per Million mapped reads).&lt;/span&gt;&lt;/p&gt;" style="rounded=1;whiteSpace=wrap;html=1;glass=0;strokeWidth=1;shadow=0;" vertex="1" parent="WIyWlLk6GJQsqaUBKTNV-1">
          <mxGeometry x="8" y="360" width="310" height="220" as="geometry" />
        </mxCell>
        <mxCell id="c5KxyFGN9bZm3WGatxDX-7" value="" style="edgeStyle=orthogonalEdgeStyle;rounded=0;orthogonalLoop=1;jettySize=auto;html=1;strokeWidth=6;" edge="1" parent="WIyWlLk6GJQsqaUBKTNV-1" source="c5KxyFGN9bZm3WGatxDX-4" target="c5KxyFGN9bZm3WGatxDX-6">
          <mxGeometry relative="1" as="geometry" />
        </mxCell>
        <mxCell id="c5KxyFGN9bZm3WGatxDX-4" value="&lt;p&gt;&lt;b&gt;&lt;font style=&quot;font-size: 18px;&quot;&gt;Filtering Low Expression Genes:&lt;/font&gt;&lt;/b&gt;&lt;/p&gt;&lt;p&gt;&lt;span style=&quot;background-color: initial;&quot;&gt;Remove genes with FPKM less than 1 in at least half of the samples.&lt;/span&gt;&lt;/p&gt;&lt;p&gt;&lt;span style=&quot;background-color: initial;&quot;&gt;Remaining genes: 14,728.&lt;/span&gt;&lt;/p&gt;" style="rounded=1;whiteSpace=wrap;html=1;glass=0;strokeWidth=1;shadow=0;" vertex="1" parent="WIyWlLk6GJQsqaUBKTNV-1">
          <mxGeometry x="13" y="690" width="301" height="150" as="geometry" />
        </mxCell>
        <mxCell id="c5KxyFGN9bZm3WGatxDX-6" value="&lt;p&gt;&lt;font style=&quot;font-size: 18px;&quot;&gt;&lt;strong&gt;Final Gene List&lt;/strong&gt;:&lt;/font&gt;&lt;/p&gt;&lt;p&gt;&lt;span style=&quot;background-color: initial;&quot;&gt;The list includes 14,728 genes.&lt;/span&gt;&lt;/p&gt;" style="rounded=1;whiteSpace=wrap;html=1;glass=0;strokeWidth=1;shadow=0;" vertex="1" parent="WIyWlLk6GJQsqaUBKTNV-1">
          <mxGeometry x="25.25" y="950" width="276.5" height="95" as="geometry" />
        </mxCell>
        <mxCell id="c5KxyFGN9bZm3WGatxDX-10" value="" style="edgeStyle=orthogonalEdgeStyle;rounded=0;orthogonalLoop=1;jettySize=auto;html=1;strokeWidth=6;" edge="1" parent="WIyWlLk6GJQsqaUBKTNV-1" source="c5KxyFGN9bZm3WGatxDX-8" target="c5KxyFGN9bZm3WGatxDX-9">
          <mxGeometry relative="1" as="geometry" />
        </mxCell>
        <mxCell id="c5KxyFGN9bZm3WGatxDX-8" value="&lt;b&gt;&lt;font style=&quot;font-size: 18px;&quot;&gt;Data Acquisition:&lt;/font&gt;&lt;/b&gt;&lt;div&gt;&lt;div&gt;&lt;span style=&quot;background-color: initial;&quot;&gt;Obtain genotype data from Phase 1 of the 1000 Genomes Project in VCF (Variant Call Format) format.&lt;/span&gt;&lt;/div&gt;&lt;/div&gt;" style="rounded=1;whiteSpace=wrap;html=1;fontSize=12;glass=0;strokeWidth=1;shadow=0;" vertex="1" parent="WIyWlLk6GJQsqaUBKTNV-1">
          <mxGeometry x="510" y="20" width="230" height="100" as="geometry" />
        </mxCell>
        <mxCell id="c5KxyFGN9bZm3WGatxDX-12" value="" style="edgeStyle=orthogonalEdgeStyle;rounded=0;orthogonalLoop=1;jettySize=auto;html=1;strokeWidth=6;" edge="1" parent="WIyWlLk6GJQsqaUBKTNV-1" source="c5KxyFGN9bZm3WGatxDX-9" target="c5KxyFGN9bZm3WGatxDX-11">
          <mxGeometry relative="1" as="geometry" />
        </mxCell>
        <mxCell id="c5KxyFGN9bZm3WGatxDX-9" value="&lt;p&gt;&lt;font style=&quot;font-size: 18px;&quot;&gt;&lt;strong&gt;Identification and Filtering of Variants&lt;/strong&gt;:&lt;/font&gt;&lt;/p&gt;&lt;p&gt;&lt;strong style=&quot;background-color: initial;&quot;&gt;Filter Indels and Low-Frequency Variants&lt;/strong&gt;&lt;span style=&quot;background-color: initial;&quot;&gt;:&lt;/span&gt;&lt;/p&gt;&lt;p&gt;&lt;span style=&quot;background-color: initial;&quot;&gt;Identify and filter out indels (insertions and deletions) and variants with minor allele frequency (MAF) less than 0.5%.&lt;/span&gt;&lt;/p&gt;&lt;p&gt;&lt;span style=&quot;background-color: initial;&quot;&gt;The number of remaining SNPs after filtering: &lt;/span&gt;&lt;strong style=&quot;background-color: initial;&quot;&gt;6,785,201&lt;/strong&gt;&lt;span style=&quot;background-color: initial;&quot;&gt;.&lt;/span&gt;&lt;/p&gt;" style="rounded=1;whiteSpace=wrap;html=1;glass=0;strokeWidth=1;shadow=0;" vertex="1" parent="WIyWlLk6GJQsqaUBKTNV-1">
          <mxGeometry x="460" y="180" width="330" height="160" as="geometry" />
        </mxCell>
        <mxCell id="c5KxyFGN9bZm3WGatxDX-14" value="" style="edgeStyle=orthogonalEdgeStyle;rounded=0;orthogonalLoop=1;jettySize=auto;html=1;strokeWidth=6;" edge="1" parent="WIyWlLk6GJQsqaUBKTNV-1" source="c5KxyFGN9bZm3WGatxDX-11" target="c5KxyFGN9bZm3WGatxDX-13">
          <mxGeometry relative="1" as="geometry" />
        </mxCell>
        <mxCell id="c5KxyFGN9bZm3WGatxDX-11" value="&lt;p&gt;&lt;font style=&quot;font-size: 18px;&quot;&gt;&lt;strong&gt;SNPs Proximity Filtering&lt;/strong&gt;:&lt;/font&gt;&lt;/p&gt;&lt;p&gt;&lt;strong style=&quot;background-color: initial;&quot;&gt;Filter Based on Proximity to Gene Boundaries&lt;/strong&gt;&lt;span style=&quot;background-color: initial;&quot;&gt;:&lt;/span&gt;&lt;/p&gt;&lt;p&gt;&lt;span style=&quot;background-color: initial;&quot;&gt;Identify SNPs within 100 kbp upstream and downstream of gene start and end points.&lt;/span&gt;&lt;/p&gt;&lt;p&gt;&lt;span style=&quot;background-color: initial;&quot;&gt;The number of remaining SNPs after this filtering step: &lt;/span&gt;&lt;strong style=&quot;background-color: initial;&quot;&gt;3,075,962&lt;/strong&gt;&lt;span style=&quot;background-color: initial;&quot;&gt;.&lt;/span&gt;&lt;/p&gt;" style="rounded=1;whiteSpace=wrap;html=1;glass=0;strokeWidth=1;shadow=0;" vertex="1" parent="WIyWlLk6GJQsqaUBKTNV-1">
          <mxGeometry x="455" y="400" width="340" height="160" as="geometry" />
        </mxCell>
        <mxCell id="c5KxyFGN9bZm3WGatxDX-16" value="" style="edgeStyle=orthogonalEdgeStyle;rounded=0;orthogonalLoop=1;jettySize=auto;html=1;strokeWidth=6;" edge="1" parent="WIyWlLk6GJQsqaUBKTNV-1" source="c5KxyFGN9bZm3WGatxDX-13" target="c5KxyFGN9bZm3WGatxDX-15">
          <mxGeometry relative="1" as="geometry" />
        </mxCell>
        <mxCell id="c5KxyFGN9bZm3WGatxDX-13" value="&lt;p&gt;&lt;font style=&quot;font-size: 18px;&quot;&gt;&lt;strong&gt;Sample Representation Filtering&lt;/strong&gt;:&lt;/font&gt;&lt;/p&gt;&lt;p&gt;&lt;strong style=&quot;background-color: initial;&quot;&gt;Filter SNPs Based on Sample Representation&lt;/strong&gt;&lt;span style=&quot;background-color: initial;&quot;&gt;:&lt;/span&gt;&lt;/p&gt;&lt;p&gt;&lt;span style=&quot;background-color: initial;&quot;&gt;Remove SNPs that are present in fewer than 5 samples in each group.&lt;/span&gt;&lt;/p&gt;&lt;p&gt;&lt;span style=&quot;background-color: initial;&quot;&gt;The number of remaining SNPs after this filtering step: &lt;/span&gt;&lt;strong style=&quot;background-color: initial;&quot;&gt;918,742&lt;/strong&gt;&lt;span style=&quot;background-color: initial;&quot;&gt;.&lt;/span&gt;&lt;/p&gt;" style="rounded=1;whiteSpace=wrap;html=1;glass=0;strokeWidth=1;shadow=0;" vertex="1" parent="WIyWlLk6GJQsqaUBKTNV-1">
          <mxGeometry x="470" y="630" width="310" height="220" as="geometry" />
        </mxCell>
        <mxCell id="c5KxyFGN9bZm3WGatxDX-15" value="&lt;p&gt;&lt;font style=&quot;font-size: 18px;&quot;&gt;&lt;strong&gt;Final SNP List&lt;/strong&gt;:&lt;/font&gt;&lt;/p&gt;&lt;p&gt;&lt;span style=&quot;background-color: initial;&quot;&gt;Generate the final list of SNPs that includes &lt;/span&gt;&lt;strong style=&quot;background-color: initial;&quot;&gt;918,742&lt;/strong&gt;&lt;span style=&quot;background-color: initial;&quot;&gt; SNPs.&lt;/span&gt;&lt;/p&gt;" style="rounded=1;whiteSpace=wrap;html=1;glass=0;strokeWidth=1;shadow=0;" vertex="1" parent="WIyWlLk6GJQsqaUBKTNV-1">
          <mxGeometry x="490" y="958.75" width="270" height="77.5" as="geometry" />
        </mxCell>
      </root>
    </mxGraphModel>
  </diagram>
</mxfile>
